<?xml version="1.0" standalone="no"?><!DOCTYPE svg PUBLIC "-//W3C//DTD SVG 1.1//EN" "http://www.w3.org/Graphics/SVG/1.1/DTD/svg11.dtd"><svg class="icon" height="512" viewBox="0 0 1024 1024" version="1.1" xmlns="http://www.w3.org/2000/svg"><path d="M736 608c-38.4-32-76.8-51.2-128-64 76.8-44.8 128-128 128-217.6 0-140.8-115.2-256-256-256s-256 108.8-256 249.6c0 96 51.2 172.8 128 217.6-166.4 51.2-281.6 204.8-288 384 0 25.6 12.8 38.4 32 38.4s32-12.8 32-32c6.4-192 160-345.6 352-345.6 76.8 0 153.6 25.6 211.2 70.4l44.8-44.8zM288 320c0-108.8 83.2-192 192-192s192 83.2 192 192-83.2 192-192 192-192-83.2-192-192zM806.4 812.8c12.8 38.4 25.6 76.8 25.6 115.2 0 19.2 12.8 32 32 32s32-12.8 32-32c0-57.6-19.2-115.2-38.4-166.4l-51.2 51.2zM531.2 902.4c-6.4 6.4-12.8 12.8-12.8 25.6 0 19.2 12.8 32 32 32 6.4 0 19.2-6.4 25.6-6.4l262.4-262.4-44.8-51.2-262.4 262.4zM966.4 544c0-19.2-12.8-32-32-32-6.4 0-19.2 6.4-25.6 12.8L832 601.6l44.8 44.8L960 563.2s6.4-12.8 6.4-19.2z" fill="" /></svg>