<svg width="28" height="29" viewBox="0 0 28 29" fill="none" xmlns="http://www.w3.org/2000/svg">
<path d="M0 14.121C0 6.3222 6.26801 0 14 0C21.732 0 28 6.3222 28 14.121C28 21.9199 21.732 28.2421 14 28.2421C6.26801 28.2421 0 21.9199 0 14.121Z" fill="#3F3028"/>
<path fill-rule="evenodd" clip-rule="evenodd" d="M17.482 14.0165C17.73 13.398 17.2745 12.7246 16.6081 12.7246C16.0882 12.7246 15.6667 12.3031 15.6667 11.7831V10.8625C15.6667 10.3486 16.0848 10.397 16.6 10.397C17.1155 10.397 17.5333 9.97911 17.5333 9.46365V9.23316C17.5333 8.5904 17.0123 8.06934 16.3695 8.06934H15.6667C14.9241 8.06934 14.2119 8.36362 13.6868 8.88744C13.1617 9.41126 12.8667 10.1217 12.8667 10.8625V11.7913C12.8667 12.3068 12.4488 12.7246 11.9333 12.7246C11.4179 12.7246 11 13.1425 11 13.658V14.1189C11 14.6344 11.4179 15.0523 11.9333 15.0523C12.4488 15.0523 12.8667 15.4701 12.8667 15.9856V18.7731C12.8667 19.5463 13.4935 20.1731 14.2667 20.1731C15.0399 20.1731 15.6667 19.5463 15.6667 18.7731V15.8874C15.6667 15.4262 16.0406 15.0523 16.5018 15.0523C16.843 15.0523 17.1499 14.8447 17.2769 14.528L17.482 14.0165Z" fill="#F1F1F1"/>
</svg>
