<svg width="126" height="126" viewBox="0 0 126 126" fill="none" xmlns="http://www.w3.org/2000/svg">
<g filter="url(#filter0_d_2_113)">
<rect x="20" y="10" width="86" height="86" fill="white"/>
</g>
<path fill-rule="evenodd" clip-rule="evenodd" d="M38 41.3333V33H88V41.3333H38ZM42.074 38.5524C42.3481 38.7356 42.6704 38.8333 43 38.8333C43.442 38.8333 43.866 38.6577 44.1785 38.3452C44.4911 38.0326 44.6667 37.6087 44.6667 37.1667C44.6667 36.837 44.5689 36.5148 44.3858 36.2407C44.2026 35.9666 43.9423 35.753 43.6378 35.6269C43.3333 35.5007 42.9982 35.4677 42.6748 35.532C42.3515 35.5963 42.0546 35.7551 41.8215 35.9882C41.5884 36.2212 41.4297 36.5182 41.3654 36.8415C41.301 37.1648 41.3341 37.4999 41.4602 37.8045C41.5863 38.109 41.8 38.3693 42.074 38.5524ZM47.074 38.5524C47.3481 38.7356 47.6704 38.8333 48 38.8333C48.442 38.8333 48.866 38.6577 49.1785 38.3452C49.4911 38.0326 49.6667 37.6087 49.6667 37.1667C49.6667 36.837 49.5689 36.5148 49.3858 36.2407C49.2026 35.9666 48.9423 35.753 48.6378 35.6269C48.3333 35.5007 47.9982 35.4677 47.6748 35.532C47.3515 35.5963 47.0546 35.7551 46.8215 35.9882C46.5884 36.2212 46.4297 36.5182 46.3654 36.8415C46.301 37.1648 46.3341 37.4999 46.4602 37.8045C46.5863 38.109 46.8 38.3693 47.074 38.5524ZM52.074 38.5524C52.3481 38.7356 52.6704 38.8333 53 38.8333C53.442 38.8333 53.866 38.6577 54.1785 38.3452C54.4911 38.0326 54.6667 37.6087 54.6667 37.1667C54.6667 36.837 54.5689 36.5148 54.3858 36.2407C54.2026 35.9666 53.9423 35.753 53.6378 35.6269C53.3333 35.5007 52.9982 35.4677 52.6748 35.532C52.3515 35.5963 52.0546 35.7551 51.8215 35.9882C51.5884 36.2212 51.4297 36.5182 51.3654 36.8415C51.301 37.1648 51.3341 37.4999 51.4602 37.8045C51.5863 38.109 51.8 38.3693 52.074 38.5524Z" fill="#140A05"/>
<path d="M88 44.6667H38V73H88V44.6667Z" fill="#140A05"/>
<defs>
<filter id="filter0_d_2_113" x="0" y="0" width="126" height="126" filterUnits="userSpaceOnUse" color-interpolation-filters="sRGB">
<feFlood flood-opacity="0" result="BackgroundImageFix"/>
<feColorMatrix in="SourceAlpha" type="matrix" values="0 0 0 0 0 0 0 0 0 0 0 0 0 0 0 0 0 0 127 0" result="hardAlpha"/>
<feOffset dy="10"/>
<feGaussianBlur stdDeviation="10"/>
<feComposite in2="hardAlpha" operator="out"/>
<feColorMatrix type="matrix" values="0 0 0 0 0 0 0 0 0 0 0 0 0 0 0 0 0 0 0.05 0"/>
<feBlend mode="normal" in2="BackgroundImageFix" result="effect1_dropShadow_2_113"/>
<feBlend mode="normal" in="SourceGraphic" in2="effect1_dropShadow_2_113" result="shape"/>
</filter>
</defs>
</svg>
