<svg width="126" height="126" viewBox="0 0 126 126" fill="none" xmlns="http://www.w3.org/2000/svg">
<g filter="url(#filter0_d_2_120)">
<rect x="20" y="10" width="86" height="86" fill="white"/>
</g>
<path fill-rule="evenodd" clip-rule="evenodd" d="M38 34C38 33.4477 38.4477 33 39 33H87C87.5523 33 88 33.4477 88 34V40.3333C88 40.8856 87.5523 41.3333 87 41.3333H39C38.4477 41.3333 38 40.8856 38 40.3333V34ZM42.0741 38.5525C42.3481 38.7356 42.6704 38.8333 43 38.8333C43.442 38.8333 43.866 38.6577 44.1785 38.3452C44.4911 38.0326 44.6667 37.6087 44.6667 37.1667C44.6667 36.837 44.5689 36.5148 44.3858 36.2407C44.2027 35.9666 43.9424 35.753 43.6378 35.6269C43.3333 35.5007 42.9982 35.4677 42.6749 35.532C42.3515 35.5963 42.0546 35.7551 41.8215 35.9882C41.5884 36.2212 41.4297 36.5182 41.3654 36.8415C41.3011 37.1648 41.3341 37.4999 41.4602 37.8045C41.5863 38.109 41.8 38.3693 42.0741 38.5525ZM47.0741 38.5525C47.3481 38.7356 47.6704 38.8333 48 38.8333C48.442 38.8333 48.866 38.6577 49.1785 38.3452C49.4911 38.0326 49.6667 37.6087 49.6667 37.1667C49.6667 36.837 49.5689 36.5148 49.3858 36.2407C49.2027 35.9666 48.9424 35.753 48.6378 35.6269C48.3333 35.5007 47.9982 35.4677 47.6749 35.532C47.3515 35.5963 47.0546 35.7551 46.8215 35.9882C46.5884 36.2212 46.4297 36.5182 46.3654 36.8415C46.3011 37.1648 46.3341 37.4999 46.4602 37.8045C46.5863 38.109 46.8 38.3693 47.0741 38.5525ZM52.0741 38.5525C52.3481 38.7356 52.6704 38.8333 53 38.8333C53.442 38.8333 53.866 38.6577 54.1785 38.3452C54.4911 38.0326 54.6667 37.6087 54.6667 37.1667C54.6667 36.837 54.5689 36.5148 54.3858 36.2407C54.2027 35.9666 53.9424 35.753 53.6378 35.6269C53.3333 35.5007 52.9982 35.4677 52.6749 35.532C52.3515 35.5963 52.0546 35.7551 51.8215 35.9882C51.5884 36.2212 51.4297 36.5182 51.3654 36.8415C51.3011 37.1648 51.3341 37.4999 51.4602 37.8045C51.5863 38.109 51.8 38.3693 52.0741 38.5525Z" fill="black"/>
<path fill-rule="evenodd" clip-rule="evenodd" d="M38 45.6667C38 45.1145 38.4477 44.6667 39 44.6667H87C87.5523 44.6667 88 45.1145 88 45.6667V72.0001C88 72.5524 87.5523 73.0001 87 73.0001H39C38.4477 73.0001 38 72.5524 38 72.0001V45.6667ZM48 66.3334H64.6667C65.1087 66.3334 65.5326 66.1578 65.8452 65.8453C66.1577 65.5327 66.3333 65.1088 66.3333 64.6667C66.3333 64.2247 66.1577 63.8008 65.8452 63.4882C65.5326 63.1757 65.1087 63.0001 64.6667 63.0001H48C47.558 63.0001 47.134 63.1757 46.8215 63.4882C46.5089 63.8008 46.3333 64.2247 46.3333 64.6667C46.3333 65.1088 46.5089 65.5327 46.8215 65.8453C47.134 66.1578 47.558 66.3334 48 66.3334ZM48 59.6667H78C78.442 59.6667 78.866 59.4912 79.1785 59.1786C79.4911 58.866 79.6667 58.4421 79.6667 58.0001C79.6667 57.5581 79.4911 57.1341 79.1785 56.8216C78.866 56.509 78.442 56.3334 78 56.3334H48C47.558 56.3334 47.134 56.509 46.8215 56.8216C46.5089 57.1341 46.3333 57.5581 46.3333 58.0001C46.3333 58.4421 46.5089 58.866 46.8215 59.1786C47.134 59.4912 47.558 59.6667 48 59.6667ZM48 53.0001H78C78.442 53.0001 78.866 52.8245 79.1785 52.5119C79.4911 52.1994 79.6667 51.7754 79.6667 51.3334C79.6667 50.8914 79.4911 50.4675 79.1785 50.1549C78.866 49.8423 78.442 49.6667 78 49.6667H48C47.558 49.6667 47.134 49.8423 46.8215 50.1549C46.5089 50.4675 46.3333 50.8914 46.3333 51.3334C46.3333 51.7754 46.5089 52.1994 46.8215 52.5119C47.134 52.8245 47.558 53.0001 48 53.0001Z" fill="black"/>
<defs>
<filter id="filter0_d_2_120" x="0" y="0" width="126" height="126" filterUnits="userSpaceOnUse" color-interpolation-filters="sRGB">
<feFlood flood-opacity="0" result="BackgroundImageFix"/>
<feColorMatrix in="SourceAlpha" type="matrix" values="0 0 0 0 0 0 0 0 0 0 0 0 0 0 0 0 0 0 127 0" result="hardAlpha"/>
<feOffset dy="10"/>
<feGaussianBlur stdDeviation="10"/>
<feComposite in2="hardAlpha" operator="out"/>
<feColorMatrix type="matrix" values="0 0 0 0 0 0 0 0 0 0 0 0 0 0 0 0 0 0 0.05 0"/>
<feBlend mode="normal" in2="BackgroundImageFix" result="effect1_dropShadow_2_120"/>
<feBlend mode="normal" in="SourceGraphic" in2="effect1_dropShadow_2_120" result="shape"/>
</filter>
</defs>
</svg>
