<svg width="28" height="29" viewBox="0 0 28 29" fill="none" xmlns="http://www.w3.org/2000/svg">
<path d="M0 14.121C0 6.3222 6.26801 0 14 0C21.732 0 28 6.3222 28 14.121C28 21.9199 21.732 28.2421 14 28.2421C6.26801 28.2421 0 21.9199 0 14.121Z" fill="#3F3028"/>
<path d="M10.4376 12.4214H8.15949V19.1505H10.4376V12.4214Z" fill="#F1F1F1"/>
<path d="M10.0546 9.28102C9.8375 9.14841 9.58234 9.07764 9.32133 9.07764C9.14718 9.07763 8.97474 9.10915 8.81393 9.17037C8.65312 9.23159 8.50713 9.32131 8.38433 9.43437C8.26154 9.54743 8.16437 9.68159 8.09841 9.82915C8.03246 9.9767 7.99902 10.1347 8.00002 10.2942C8.00152 10.5331 8.08029 10.7663 8.22639 10.9643C8.37248 11.1623 8.57936 11.3162 8.82093 11.4067C9.0625 11.4972 9.32793 11.5202 9.58373 11.4727C9.83954 11.4252 10.0743 11.3095 10.2583 11.1401C10.4423 10.9706 10.5674 10.7551 10.6178 10.5207C10.6682 10.2862 10.6416 10.0434 10.5413 9.82274C10.4411 9.60212 10.2717 9.41362 10.0546 9.28102Z" fill="#F1F1F1"/>
<path d="M14.0944 12.421H11.8998L11.8923 19.1641H14.1704V15.8343C14.1704 14.9584 14.3526 14.1103 15.5372 14.1103C16.7219 14.1103 16.7219 15.1183 16.7219 15.8968V19.1502H19V15.4589C19 13.6445 18.5368 12.2542 16.2587 12.2542C15.8245 12.2386 15.3938 12.3313 15.0126 12.5223C14.6315 12.7133 14.3141 12.9954 14.0944 13.3386V12.421Z" fill="#F1F1F1"/>
</svg>
