<svg width="28" height="29" viewBox="0 0 28 29" fill="none" xmlns="http://www.w3.org/2000/svg">
<path d="M0 14.121C0 6.3222 6.26801 0 14 0C21.732 0 28 6.3222 28 14.121C28 21.9199 21.732 28.2421 14 28.2421C6.26801 28.2421 0 21.9199 0 14.121Z" fill="#3F3028"/>
<path d="M20 11.0993C19.5957 11.2861 19.0838 11.4615 18.625 11.5198C19.0916 11.2312 19.8318 10.6301 20 10.0864C19.5641 10.3535 18.7758 10.6387 18.2615 10.7419C17.8509 10.288 17.2651 10.0864 16.6161 10.0864C15.3695 10.0864 14.5 11.1877 14.5 12.4753V13.4309C12.6667 13.4309 10.8792 11.9751 9.76679 10.5642C9.56566 10.9198 9.46006 11.3253 9.46108 11.7381C9.46108 12.6072 10.227 13.4892 10.8333 13.9087C10.4635 13.8967 9.76313 13.6024 9.45833 13.4309V13.4581C9.45833 14.589 10.2196 15.3568 11.2513 15.5709C11.063 15.6248 10.8333 15.8198 9.94967 15.8198C10.2366 16.7443 11.679 17.2331 12.6667 17.2531C11.8939 17.8776 10.5162 18.2087 9.45833 18.2087C9.27546 18.2087 9.17646 18.2192 9 18.1977C9.99825 18.857 11.3925 19.1642 12.6667 19.1642C16.8178 19.1642 19.0833 15.859 19.0833 12.7763C19.0833 12.675 19.0801 12.3358 19.0751 12.2364C19.5187 11.9106 19.6984 11.5695 20 11.0993Z" fill="#F1F1F1"/>
</svg>
